<?xml version="1.0" encoding="us-ascii" standalone="no"?><svg xmlns="http://www.w3.org/2000/svg" xmlns:xlink="http://www.w3.org/1999/xlink" contentStyleType="text/css" height="1091px" preserveAspectRatio="none" style="width:870px;height:1091px;background:#FFFFFF;" version="1.1" viewBox="0 0 870 1091" width="870px" zoomAndPan="magnify"><defs/><g><rect fill="#F1F1F1" height="36.2969" rx="12.5" ry="12.5" style="stroke:#181818;stroke-width:1.5;" width="76" x="10" y="526.6719"/><text fill="#000000" font-family="sans-serif" font-size="14" lengthAdjust="spacing" textLength="56" x="20" y="549.667">&#25968;&#25454;&#35299;&#30721;</text><rect fill="#F1F1F1" height="36.2969" rx="12.5" ry="12.5" style="stroke:#181818;stroke-width:1.5;" width="48" x="136" y="188.8906"/><text fill="#000000" font-family="sans-serif" font-size="14" lengthAdjust="spacing" textLength="28" x="146" y="211.8857">&#23450;&#20301;</text><rect fill="#F1F1F1" height="36.2969" rx="12.5" ry="12.5" style="stroke:#181818;stroke-width:1.5;" width="90" x="234" y="48.1484"/><text fill="#000000" font-family="sans-serif" font-size="14" lengthAdjust="spacing" textLength="70" x="244" y="71.1436">&#20174;&#21738;&#37324;&#24320;&#22987;</text><rect fill="#F1F1F1" height="36.2969" rx="12.5" ry="12.5" style="stroke:#181818;stroke-width:1.5;" width="76" x="374" y="20"/><text fill="#000000" font-family="sans-serif" font-size="14" lengthAdjust="spacing" textLength="56" x="384" y="42.9951">&#22266;&#23450;&#20301;&#32622;</text><rect fill="#F1F1F1" height="36.2969" rx="12.5" ry="12.5" style="stroke:#181818;stroke-width:1.5;" width="219" x="500" y="20"/><text fill="#000000" font-family="sans-serif" font-size="14" lengthAdjust="spacing" textLength="199" x="510" y="42.9951">&#12304;&#26576;&#20301;&#32622;&#12305;&#20363;&#22914;&#65306;&#20174;&#19979;&#26631; 1 &#24320;&#22987;</text><path d="M450,38.1484 L460,38.1484 C475,38.1484 475,38.1484 490,38.1484 L500,38.1484 " fill="none" style="stroke:#181818;stroke-width:1.0;"/><path d="M324,66.2969 L334,66.2969 C349,66.2969 349,38.1484 364,38.1484 L374,38.1484 " fill="none" style="stroke:#181818;stroke-width:1.0;"/><rect fill="#F1F1F1" height="36.2969" rx="12.5" ry="12.5" style="stroke:#181818;stroke-width:1.5;" width="76" x="374" y="76.2969"/><text fill="#000000" font-family="sans-serif" font-size="14" lengthAdjust="spacing" textLength="56" x="384" y="99.292">&#20559;&#31227;&#20301;&#32622;</text><rect fill="#F1F1F1" height="36.2969" rx="12.5" ry="12.5" style="stroke:#181818;stroke-width:1.5;" width="258" x="500" y="76.2969"/><text fill="#000000" font-family="sans-serif" font-size="14" lengthAdjust="spacing" textLength="238" x="510" y="99.292">&#12304;&#26576;&#23383;&#27573;&#12305;&#20363;&#22914;&#65306;&#20174; type &#23383;&#27573;&#21518;&#24320;&#22987;</text><path d="M450,94.4453 L460,94.4453 C475,94.4453 475,94.4453 490,94.4453 L500,94.4453 " fill="none" style="stroke:#181818;stroke-width:1.0;"/><path d="M324,66.2969 L334,66.2969 C349,66.2969 349,94.4453 364,94.4453 L374,94.4453 " fill="none" style="stroke:#181818;stroke-width:1.0;"/><path d="M184,207.0391 L194,207.0391 C209,207.0391 209,66.2969 224,66.2969 L234,66.2969 " fill="none" style="stroke:#181818;stroke-width:1.0;"/><rect fill="#F1F1F1" height="36.2969" rx="12.5" ry="12.5" style="stroke:#181818;stroke-width:1.5;" width="90" x="234" y="160.7422"/><text fill="#000000" font-family="sans-serif" font-size="14" lengthAdjust="spacing" textLength="70" x="244" y="183.7373">&#21040;&#21738;&#37324;&#32467;&#26463;</text><rect fill="#F1F1F1" height="36.2969" rx="12.5" ry="12.5" style="stroke:#181818;stroke-width:1.5;" width="76" x="374" y="132.5938"/><text fill="#000000" font-family="sans-serif" font-size="14" lengthAdjust="spacing" textLength="56" x="384" y="155.5889">&#22266;&#23450;&#38271;&#24230;</text><rect fill="#F1F1F1" height="36.2969" rx="12.5" ry="12.5" style="stroke:#181818;stroke-width:1.5;" width="200" x="500" y="132.5938"/><text fill="#000000" font-family="sans-serif" font-size="14" lengthAdjust="spacing" textLength="180" x="510" y="155.5889">&#12304;&#22266;&#23450;&#38271;&#24230;&#12305;&#20363;&#22914;&#65306;2 &#20010;&#23383;&#33410;</text><path d="M450,150.7422 L460,150.7422 C475,150.7422 475,150.7422 490,150.7422 L500,150.7422 " fill="none" style="stroke:#181818;stroke-width:1.0;"/><path d="M324,178.8906 L334,178.8906 C349,178.8906 349,150.7422 364,150.7422 L374,150.7422 " fill="none" style="stroke:#181818;stroke-width:1.0;"/><rect fill="#F1F1F1" height="36.2969" rx="12.5" ry="12.5" style="stroke:#181818;stroke-width:1.5;" width="76" x="374" y="188.8906"/><text fill="#000000" font-family="sans-serif" font-size="14" lengthAdjust="spacing" textLength="56" x="384" y="211.8857">&#25351;&#23450;&#38271;&#24230;</text><rect fill="#F1F1F1" height="36.2969" rx="12.5" ry="12.5" style="stroke:#181818;stroke-width:1.5;" width="358" x="500" y="188.8906"/><text fill="#000000" font-family="sans-serif" font-size="14" lengthAdjust="spacing" textLength="338" x="510" y="211.8857">&#12304;&#26576;&#23383;&#27573;&#30340;&#20540;&#12305;&#20363;&#22914;&#65306;field_value &#20026; 5 &#34920;&#31034; 5 &#20010;&#23383;&#33410;</text><path d="M450,207.0391 L460,207.0391 C475,207.0391 475,207.0391 490,207.0391 L500,207.0391 " fill="none" style="stroke:#181818;stroke-width:1.0;"/><path d="M324,178.8906 L334,178.8906 C349,178.8906 349,207.0391 364,207.0391 L374,207.0391 " fill="none" style="stroke:#181818;stroke-width:1.0;"/><path d="M184,207.0391 L194,207.0391 C209,207.0391 209,178.8906 224,178.8906 L234,178.8906 " fill="none" style="stroke:#181818;stroke-width:1.0;"/><rect fill="#F1F1F1" height="36.2969" rx="12.5" ry="12.5" style="stroke:#181818;stroke-width:1.5;" width="90" x="234" y="301.4844"/><text fill="#000000" font-family="sans-serif" font-size="14" lengthAdjust="spacing" textLength="70" x="244" y="324.4795">&#26159;&#21542;&#26159;&#26631;&#35782;</text><rect fill="#F1F1F1" height="36.2969" rx="12.5" ry="12.5" style="stroke:#181818;stroke-width:1.5;" width="76" x="374" y="245.1875"/><text fill="#000000" font-family="sans-serif" font-size="14" lengthAdjust="spacing" textLength="56" x="384" y="268.1826">&#22836;&#37096;&#26631;&#35782;</text><path d="M324,319.6328 L334,319.6328 C349,319.6328 349,263.3359 364,263.3359 L374,263.3359 " fill="none" style="stroke:#181818;stroke-width:1.0;"/><rect fill="#F1F1F1" height="36.2969" rx="12.5" ry="12.5" style="stroke:#181818;stroke-width:1.5;" width="76" x="374" y="301.4844"/><text fill="#000000" font-family="sans-serif" font-size="14" lengthAdjust="spacing" textLength="56" x="384" y="324.4795">&#36523;&#37096;&#26631;&#35782;</text><path d="M324,319.6328 L334,319.6328 C349,319.6328 349,319.6328 364,319.6328 L374,319.6328 " fill="none" style="stroke:#181818;stroke-width:1.0;"/><rect fill="#F1F1F1" height="36.2969" rx="12.5" ry="12.5" style="stroke:#181818;stroke-width:1.5;" width="76" x="374" y="357.7813"/><text fill="#000000" font-family="sans-serif" font-size="14" lengthAdjust="spacing" textLength="56" x="384" y="380.7764">&#23614;&#37096;&#26631;&#35782;</text><path d="M324,319.6328 L334,319.6328 C349,319.6328 349,375.9297 364,375.9297 L374,375.9297 " fill="none" style="stroke:#181818;stroke-width:1.0;"/><path d="M184,207.0391 L194,207.0391 C209,207.0391 209,319.6328 224,319.6328 L234,319.6328 " fill="none" style="stroke:#181818;stroke-width:1.0;"/><path d="M86,544.8203 L96,544.8203 C111,544.8203 111,207.0391 126,207.0391 L136,207.0391 " fill="none" style="stroke:#181818;stroke-width:1.0;"/><rect fill="#F1F1F1" height="36.2969" rx="12.5" ry="12.5" style="stroke:#181818;stroke-width:1.5;" width="48" x="136" y="723.7109"/><text fill="#000000" font-family="sans-serif" font-size="14" lengthAdjust="spacing" textLength="28" x="146" y="746.7061">&#35299;&#26512;</text><rect fill="#F1F1F1" height="36.2969" rx="12.5" ry="12.5" style="stroke:#181818;stroke-width:1.5;" width="76" x="234" y="442.2266"/><text fill="#000000" font-family="sans-serif" font-size="14" lengthAdjust="spacing" textLength="56" x="244" y="465.2217">&#35835;&#21462;&#39034;&#24207;</text><rect fill="#F1F1F1" height="36.2969" rx="12.5" ry="12.5" style="stroke:#181818;stroke-width:1.5;" width="62" x="360" y="414.0781"/><text fill="#000000" font-family="sans-serif" font-size="14" lengthAdjust="spacing" textLength="42" x="370" y="437.0732">&#22823;&#31471;&#24207;</text><rect fill="#F1F1F1" height="36.2969" rx="12.5" ry="12.5" style="stroke:#181818;stroke-width:1.5;" width="54" x="472" y="414.0781"/><text fill="#000000" font-family="sans-serif" font-size="14" lengthAdjust="spacing" textLength="34" x="482" y="437.0732">HIGT</text><path d="M422,432.2266 L432,432.2266 C447,432.2266 447,432.2266 462,432.2266 L472,432.2266 " fill="none" style="stroke:#181818;stroke-width:1.0;"/><path d="M310,460.375 L320,460.375 C335,460.375 335,432.2266 350,432.2266 L360,432.2266 " fill="none" style="stroke:#181818;stroke-width:1.0;"/><rect fill="#F1F1F1" height="36.2969" rx="12.5" ry="12.5" style="stroke:#181818;stroke-width:1.5;" width="62" x="360" y="470.375"/><text fill="#000000" font-family="sans-serif" font-size="14" lengthAdjust="spacing" textLength="42" x="370" y="493.3701">&#23567;&#31471;&#24207;</text><rect fill="#F1F1F1" height="36.2969" rx="12.5" ry="12.5" style="stroke:#181818;stroke-width:1.5;" width="53" x="472" y="470.375"/><text fill="#000000" font-family="sans-serif" font-size="14" lengthAdjust="spacing" textLength="33" x="482" y="493.3701">LOW</text><path d="M422,488.5234 L432,488.5234 C447,488.5234 447,488.5234 462,488.5234 L472,488.5234 " fill="none" style="stroke:#181818;stroke-width:1.0;"/><path d="M310,460.375 L320,460.375 C335,460.375 335,488.5234 350,488.5234 L360,488.5234 " fill="none" style="stroke:#181818;stroke-width:1.0;"/><path d="M184,741.8594 L194,741.8594 C209,741.8594 209,460.375 224,460.375 L234,460.375 " fill="none" style="stroke:#181818;stroke-width:1.0;"/><rect fill="#F1F1F1" height="36.2969" rx="12.5" ry="12.5" style="stroke:#181818;stroke-width:1.5;" width="76" x="234" y="780.0078"/><text fill="#000000" font-family="sans-serif" font-size="14" lengthAdjust="spacing" textLength="56" x="244" y="803.0029">&#25968;&#25454;&#31867;&#22411;</text><rect fill="#F1F1F1" height="36.2969" rx="12.5" ry="12.5" style="stroke:#181818;stroke-width:1.5;" width="57" x="360" y="526.6719"/><text fill="#000000" font-family="sans-serif" font-size="14" lengthAdjust="spacing" textLength="37" x="370" y="549.667">BYTE</text><rect fill="#F1F1F1" height="36.2969" rx="12.5" ry="12.5" style="stroke:#181818;stroke-width:1.5;" width="61" x="467" y="526.6719"/><text fill="#000000" font-family="sans-serif" font-size="14" lengthAdjust="spacing" textLength="41" x="477" y="549.667">1 &#23383;&#33410;</text><path d="M417,544.8203 L427,544.8203 C442,544.8203 442,544.8203 457,544.8203 L467,544.8203 " fill="none" style="stroke:#181818;stroke-width:1.0;"/><path d="M310,798.1563 L320,798.1563 C335,798.1563 335,544.8203 350,544.8203 L360,544.8203 " fill="none" style="stroke:#181818;stroke-width:1.0;"/><rect fill="#F1F1F1" height="36.2969" rx="12.5" ry="12.5" style="stroke:#181818;stroke-width:1.5;" width="66" x="360" y="582.9688"/><text fill="#000000" font-family="sans-serif" font-size="14" lengthAdjust="spacing" textLength="46" x="370" y="605.9639">BYTES</text><rect fill="#F1F1F1" height="36.2969" rx="12.5" ry="12.5" style="stroke:#181818;stroke-width:1.5;" width="62" x="476" y="582.9688"/><text fill="#000000" font-family="sans-serif" font-size="14" lengthAdjust="spacing" textLength="42" x="486" y="605.9639">N &#23383;&#33410;</text><path d="M426,601.1172 L436,601.1172 C451,601.1172 451,601.1172 466,601.1172 L476,601.1172 " fill="none" style="stroke:#181818;stroke-width:1.0;"/><path d="M310,798.1563 L320,798.1563 C335,798.1563 335,601.1172 350,601.1172 L360,601.1172 " fill="none" style="stroke:#181818;stroke-width:1.0;"/><rect fill="#F1F1F1" height="36.2969" rx="12.5" ry="12.5" style="stroke:#181818;stroke-width:1.5;" width="69" x="360" y="639.2656"/><text fill="#000000" font-family="sans-serif" font-size="14" lengthAdjust="spacing" textLength="49" x="370" y="662.2607">SHORT</text><rect fill="#F1F1F1" height="36.2969" rx="12.5" ry="12.5" style="stroke:#181818;stroke-width:1.5;" width="60" x="479" y="639.2656"/><text fill="#000000" font-family="sans-serif" font-size="14" lengthAdjust="spacing" textLength="40" x="489" y="662.2607">2 &#23383;&#33410;</text><path d="M429,657.4141 L439,657.4141 C454,657.4141 454,657.4141 469,657.4141 L479,657.4141 " fill="none" style="stroke:#181818;stroke-width:1.0;"/><path d="M310,798.1563 L320,798.1563 C335,798.1563 335,657.4141 350,657.4141 L360,657.4141 " fill="none" style="stroke:#181818;stroke-width:1.0;"/><rect fill="#F1F1F1" height="36.2969" rx="12.5" ry="12.5" style="stroke:#181818;stroke-width:1.5;" width="77" x="360" y="695.5625"/><text fill="#000000" font-family="sans-serif" font-size="14" lengthAdjust="spacing" textLength="57" x="370" y="718.5576">MEDIUM</text><rect fill="#F1F1F1" height="36.2969" rx="12.5" ry="12.5" style="stroke:#181818;stroke-width:1.5;" width="61" x="487" y="695.5625"/><text fill="#000000" font-family="sans-serif" font-size="14" lengthAdjust="spacing" textLength="41" x="497" y="718.5576">3 &#23383;&#33410;</text><path d="M437,713.7109 L447,713.7109 C462,713.7109 462,713.7109 477,713.7109 L487,713.7109 " fill="none" style="stroke:#181818;stroke-width:1.0;"/><path d="M310,798.1563 L320,798.1563 C335,798.1563 335,713.7109 350,713.7109 L360,713.7109 " fill="none" style="stroke:#181818;stroke-width:1.0;"/><rect fill="#F1F1F1" height="36.2969" rx="12.5" ry="12.5" style="stroke:#181818;stroke-width:1.5;" width="43" x="360" y="751.8594"/><text fill="#000000" font-family="sans-serif" font-size="14" lengthAdjust="spacing" textLength="23" x="370" y="774.8545">INT</text><rect fill="#F1F1F1" height="36.2969" rx="12.5" ry="12.5" style="stroke:#181818;stroke-width:1.5;" width="60" x="453" y="751.8594"/><text fill="#000000" font-family="sans-serif" font-size="14" lengthAdjust="spacing" textLength="40" x="463" y="774.8545">4 &#23383;&#33410;</text><path d="M403,770.0078 L413,770.0078 C428,770.0078 428,770.0078 443,770.0078 L453,770.0078 " fill="none" style="stroke:#181818;stroke-width:1.0;"/><path d="M310,798.1563 L320,798.1563 C335,798.1563 335,770.0078 350,770.0078 L360,770.0078 " fill="none" style="stroke:#181818;stroke-width:1.0;"/><rect fill="#F1F1F1" height="36.2969" rx="12.5" ry="12.5" style="stroke:#181818;stroke-width:1.5;" width="60" x="360" y="808.1563"/><text fill="#000000" font-family="sans-serif" font-size="14" lengthAdjust="spacing" textLength="40" x="370" y="831.1514">LONG</text><rect fill="#F1F1F1" height="36.2969" rx="12.5" ry="12.5" style="stroke:#181818;stroke-width:1.5;" width="60" x="470" y="808.1563"/><text fill="#000000" font-family="sans-serif" font-size="14" lengthAdjust="spacing" textLength="40" x="480" y="831.1514">8 &#23383;&#33410;</text><path d="M420,826.3047 L430,826.3047 C445,826.3047 445,826.3047 460,826.3047 L470,826.3047 " fill="none" style="stroke:#181818;stroke-width:1.0;"/><path d="M310,798.1563 L320,798.1563 C335,798.1563 335,826.3047 350,826.3047 L360,826.3047 " fill="none" style="stroke:#181818;stroke-width:1.0;"/><rect fill="#F1F1F1" height="36.2969" rx="12.5" ry="12.5" style="stroke:#181818;stroke-width:1.5;" width="66" x="360" y="864.4531"/><text fill="#000000" font-family="sans-serif" font-size="14" lengthAdjust="spacing" textLength="46" x="370" y="887.4482">FLOAT</text><rect fill="#F1F1F1" height="36.2969" rx="12.5" ry="12.5" style="stroke:#181818;stroke-width:1.5;" width="60" x="476" y="864.4531"/><text fill="#000000" font-family="sans-serif" font-size="14" lengthAdjust="spacing" textLength="40" x="486" y="887.4482">4 &#23383;&#33410;</text><path d="M426,882.6016 L436,882.6016 C451,882.6016 451,882.6016 466,882.6016 L476,882.6016 " fill="none" style="stroke:#181818;stroke-width:1.0;"/><path d="M310,798.1563 L320,798.1563 C335,798.1563 335,882.6016 350,882.6016 L360,882.6016 " fill="none" style="stroke:#181818;stroke-width:1.0;"/><rect fill="#F1F1F1" height="36.2969" rx="12.5" ry="12.5" style="stroke:#181818;stroke-width:1.5;" width="78" x="360" y="920.75"/><text fill="#000000" font-family="sans-serif" font-size="14" lengthAdjust="spacing" textLength="58" x="370" y="943.7451">DOUBLE</text><rect fill="#F1F1F1" height="36.2969" rx="12.5" ry="12.5" style="stroke:#181818;stroke-width:1.5;" width="60" x="488" y="920.75"/><text fill="#000000" font-family="sans-serif" font-size="14" lengthAdjust="spacing" textLength="40" x="498" y="943.7451">8 &#23383;&#33410;</text><path d="M438,938.8984 L448,938.8984 C463,938.8984 463,938.8984 478,938.8984 L488,938.8984 " fill="none" style="stroke:#181818;stroke-width:1.0;"/><path d="M310,798.1563 L320,798.1563 C335,798.1563 335,938.8984 350,938.8984 L360,938.8984 " fill="none" style="stroke:#181818;stroke-width:1.0;"/><rect fill="#F1F1F1" height="36.2969" rx="12.5" ry="12.5" style="stroke:#181818;stroke-width:1.5;" width="49" x="360" y="977.0469"/><text fill="#000000" font-family="sans-serif" font-size="14" lengthAdjust="spacing" textLength="29" x="370" y="1000.042">HEX</text><path d="M310,798.1563 L320,798.1563 C335,798.1563 335,995.1953 350,995.1953 L360,995.1953 " fill="none" style="stroke:#181818;stroke-width:1.0;"/><rect fill="#F1F1F1" height="36.2969" rx="12.5" ry="12.5" style="stroke:#181818;stroke-width:1.5;" width="73" x="360" y="1033.3438"/><text fill="#000000" font-family="sans-serif" font-size="14" lengthAdjust="spacing" textLength="53" x="370" y="1056.3389">STRING</text><path d="M310,798.1563 L320,798.1563 C335,798.1563 335,1051.4922 350,1051.4922 L360,1051.4922 " fill="none" style="stroke:#181818;stroke-width:1.0;"/><path d="M184,741.8594 L194,741.8594 C209,741.8594 209,798.1563 224,798.1563 L234,798.1563 " fill="none" style="stroke:#181818;stroke-width:1.0;"/><path d="M86,544.8203 L96,544.8203 C111,544.8203 111,741.8594 126,741.8594 L136,741.8594 " fill="none" style="stroke:#181818;stroke-width:1.0;"/><!--SRC=[RPDTJnf158RlzrUSIo3H5D36U6Kf29XTC7pOzgfPOIIRmYnP1Xhlq3QbAIeqnhQXgH-f0QCfqAHD3A3zCJAxorN_GWTsgRk6cytC-vxtcPEPFIi58Yea9-5qJin3IawZ5CUvG3tggljjlVLTEztXN2wWxSRmPf-jN33i7z33or5bZmxAj5KTQyp_sZDAj9lsH771NRckdjGDwQxySNXRfStTluC6om-lg-ff1TnWG-pKj5P_1eB- -AosVpz00DdE8p0iMZ-u1m5ztpNwq_g7whSJQt-Zep-qrxo7MrKhtmF3wql6rZ_i6d5rhp8Z_hythV6MbWTMmfQ4ikcN9J5RH8pLWqNGpowqy_72XWRrIuVMc-pBBaJll3ExFVyrUdDXLVJUrGE5Tc-j2h2tKe_h4wRUwTFQfz5PZ_PgKs1Bk-fCjou8XOE9AQPcS_ZeCwEloG-W_UpJO_DzV2yI0RF83TRB6HjnqudOd7We6akOZiVc205_E2cObjTcXIFJo89DvwEHe6aisOnLFlfaTiGVJVhumCnGAF3Sx34H2pCmjuBO21XZm77hMH6JfC132Ia5ISRWdlSyydZd5pSH4RsE97w5vTUOZKikBsKH42c7d9mZkCv3GIugAGHfgK0KQRD8MDZ9hOab4M95FAvRXl7EaH2S40zCHGZWagJ8E8SmuTOs1AC8GZA9vsKoANwyCEUJ2CIHmdg23O7peosnc2KiogPMmfbbI2PMvvOuNiIPefXX1o7CFPNP0Sesy-B_0000]--></g></svg>