<?xml version="1.0" encoding="UTF-8" standalone="no"?><svg xmlns="http://www.w3.org/2000/svg" xmlns:xlink="http://www.w3.org/1999/xlink" contentStyleType="text/css" height="1279px" preserveAspectRatio="none" style="width:1071px;height:1279px;background:#FFFFFF;" version="1.1" viewBox="0 0 1071 1279" width="1071px" zoomAndPan="magnify"><defs/><g><rect fill="#F1F1F1" height="36.2969" rx="12.5" ry="12.5" style="stroke:#181818;stroke-width:1.5;" width="65" x="10" y="217.0391"/><text fill="#000000" font-family="Microsoft YaHei UI" font-size="14" lengthAdjust="spacing" textLength="45" x="20" y="240.0342">gradle</text><rect fill="#F1F1F1" height="36.2969" rx="12.5" ry="12.5" style="stroke:#181818;stroke-width:1.5;" width="73" x="125" y="217.0391"/><text fill="#000000" font-family="Microsoft YaHei UI" font-size="14" lengthAdjust="spacing" textLength="53" x="135" y="240.0342">project</text><rect fill="#F1F1F1" height="36.2969" rx="12.5" ry="12.5" style="stroke:#181818;stroke-width:1.5;" width="97" x="248" y="48.1484"/><text fill="#000000" font-family="Microsoft YaHei UI" font-size="14" lengthAdjust="spacing" textLength="77" x="258" y="71.1436">buildscript</text><rect fill="#F1F1F1" height="36.2969" rx="12.5" ry="12.5" style="stroke:#181818;stroke-width:1.5;" width="107" x="395" y="20"/><text fill="#000000" font-family="Microsoft YaHei UI" font-size="14" lengthAdjust="spacing" textLength="87" x="405" y="42.9951">repositories</text><path d="M345,66.2969 L355,66.2969 C370,66.2969 370,38.1484 385,38.1484 L395,38.1484 " fill="none" style="stroke:#181818;stroke-width:1.0;"/><rect fill="#F1F1F1" height="36.2969" rx="12.5" ry="12.5" style="stroke:#181818;stroke-width:1.5;" width="121" x="395" y="76.2969"/><text fill="#000000" font-family="Microsoft YaHei UI" font-size="14" lengthAdjust="spacing" textLength="101" x="405" y="99.292">dependencies</text><path d="M345,66.2969 L355,66.2969 C370,66.2969 370,94.4453 385,94.4453 L395,94.4453 " fill="none" style="stroke:#181818;stroke-width:1.0;"/><path d="M198,235.1875 L208,235.1875 C223,235.1875 223,66.2969 238,66.2969 L248,66.2969 " fill="none" style="stroke:#181818;stroke-width:1.0;"/><rect fill="#F1F1F1" height="36.2969" rx="12.5" ry="12.5" style="stroke:#181818;stroke-width:1.5;" width="96" x="248" y="104.4453"/><text fill="#000000" font-family="Microsoft YaHei UI" font-size="14" lengthAdjust="spacing" textLength="76" x="258" y="127.4404">allprojects</text><path d="M198,235.1875 L208,235.1875 C223,235.1875 223,122.5938 238,122.5938 L248,122.5938 " fill="none" style="stroke:#181818;stroke-width:1.0;"/><rect fill="#F1F1F1" height="36.2969" rx="12.5" ry="12.5" style="stroke:#181818;stroke-width:1.5;" width="105" x="248" y="160.7422"/><text fill="#000000" font-family="Microsoft YaHei UI" font-size="14" lengthAdjust="spacing" textLength="85" x="258" y="183.7373">subprojects</text><path d="M198,235.1875 L208,235.1875 C223,235.1875 223,178.8906 238,178.8906 L248,178.8906 " fill="none" style="stroke:#181818;stroke-width:1.0;"/><rect fill="#F1F1F1" height="36.2969" rx="12.5" ry="12.5" style="stroke:#181818;stroke-width:1.5;" width="149" x="248" y="273.3359"/><text fill="#000000" font-family="Microsoft YaHei UI" font-size="14" lengthAdjust="spacing" textLength="129" x="258" y="296.3311">project(':project')</text><rect fill="#F1F1F1" height="36.2969" rx="12.5" ry="12.5" style="stroke:#181818;stroke-width:1.5;" width="153" x="447" y="132.5938"/><text fill="#000000" font-family="Microsoft YaHei UI" font-size="14" lengthAdjust="spacing" textLength="133" x="457" y="155.5889">apply plugin: 'java'</text><path d="M397,291.4844 L407,291.4844 C422,291.4844 422,150.7422 437,150.7422 L447,150.7422 " fill="none" style="stroke:#181818;stroke-width:1.0;"/><rect fill="#F1F1F1" height="36.2969" rx="12.5" ry="12.5" style="stroke:#181818;stroke-width:1.5;" width="207" x="447" y="188.8906"/><text fill="#000000" font-family="Microsoft YaHei UI" font-size="14" lengthAdjust="spacing" textLength="187" x="457" y="211.8857">sourceCompatibility = 1.8</text><path d="M397,291.4844 L407,291.4844 C422,291.4844 422,207.0391 437,207.0391 L447,207.0391 " fill="none" style="stroke:#181818;stroke-width:1.0;"/><rect fill="#F1F1F1" height="36.2969" rx="12.5" ry="12.5" style="stroke:#181818;stroke-width:1.5;" width="206" x="447" y="245.1875"/><text fill="#000000" font-family="Microsoft YaHei UI" font-size="14" lengthAdjust="spacing" textLength="186" x="457" y="268.1826">targetCompatibility = 1.8</text><path d="M397,291.4844 L407,291.4844 C422,291.4844 422,263.3359 437,263.3359 L447,263.3359 " fill="none" style="stroke:#181818;stroke-width:1.0;"/><rect fill="#F1F1F1" height="36.2969" rx="12.5" ry="12.5" style="stroke:#181818;stroke-width:1.5;" width="107" x="447" y="301.4844"/><text fill="#000000" font-family="Microsoft YaHei UI" font-size="14" lengthAdjust="spacing" textLength="87" x="457" y="324.4795">repositories</text><path d="M397,291.4844 L407,291.4844 C422,291.4844 422,319.6328 437,319.6328 L447,319.6328 " fill="none" style="stroke:#181818;stroke-width:1.0;"/><rect fill="#F1F1F1" height="36.2969" rx="12.5" ry="12.5" style="stroke:#181818;stroke-width:1.5;" width="121" x="447" y="357.7813"/><text fill="#000000" font-family="Microsoft YaHei UI" font-size="14" lengthAdjust="spacing" textLength="101" x="457" y="380.7764">dependencies</text><path d="M397,291.4844 L407,291.4844 C422,291.4844 422,375.9297 437,375.9297 L447,375.9297 " fill="none" style="stroke:#181818;stroke-width:1.0;"/><rect fill="#F1F1F1" height="36.2969" rx="12.5" ry="12.5" style="stroke:#181818;stroke-width:1.5;" width="123" x="447" y="414.0781"/><text fill="#000000" font-family="Microsoft YaHei UI" font-size="14" lengthAdjust="spacing" textLength="103" x="457" y="437.0732">configurations</text><rect fill="#F1F1F1" height="36.2969" rx="12.5" ry="12.5" style="stroke:#181818;stroke-width:1.5;" width="439" x="620" y="414.0781"/><text fill="#000000" font-family="Microsoft YaHei UI" font-size="14" lengthAdjust="spacing" textLength="419" x="630" y="437.0732">compile.exclude group: 'io.lettuce', module: 'lettuce-core'</text><path d="M570,432.2266 L580,432.2266 C595,432.2266 595,432.2266 610,432.2266 L620,432.2266 " fill="none" style="stroke:#181818;stroke-width:1.0;"/><path d="M397,291.4844 L407,291.4844 C422,291.4844 422,432.2266 437,432.2266 L447,432.2266 " fill="none" style="stroke:#181818;stroke-width:1.0;"/><path d="M198,235.1875 L208,235.1875 C223,235.1875 223,291.4844 238,291.4844 L248,291.4844 " fill="none" style="stroke:#181818;stroke-width:1.0;"/><rect fill="#F1F1F1" height="36.2969" rx="12.5" ry="12.5" style="stroke:#181818;stroke-width:1.5;" width="88" x="248" y="329.6328"/><text fill="#000000" font-family="Microsoft YaHei UI" font-size="14" lengthAdjust="spacing" textLength="68" x="258" y="352.6279">configure</text><path d="M198,235.1875 L208,235.1875 C223,235.1875 223,347.7813 238,347.7813 L248,347.7813 " fill="none" style="stroke:#181818;stroke-width:1.0;"/><path d="M75,235.1875 L85,235.1875 C100,235.1875 100,235.1875 115,235.1875 L125,235.1875 " fill="none" style="stroke:#181818;stroke-width:1.0;"/><rect fill="#F1F1F1" height="36.2969" rx="12.5" ry="12.5" style="stroke:#181818;stroke-width:1.5;" width="51" x="10" y="554.8203"/><text fill="#000000" font-family="Microsoft YaHei UI" font-size="14" lengthAdjust="spacing" textLength="31" x="20" y="577.8154">task</text><rect fill="#F1F1F1" height="36.2969" rx="12.5" ry="12.5" style="stroke:#181818;stroke-width:1.5;" width="65" x="111" y="470.375"/><text fill="#000000" font-family="Microsoft YaHei UI" font-size="14" lengthAdjust="spacing" textLength="45" x="121" y="493.3701">config</text><path d="M61,572.9688 L71,572.9688 C86,572.9688 86,488.5234 101,488.5234 L111,488.5234 " fill="none" style="stroke:#181818;stroke-width:1.0;"/><rect fill="#F1F1F1" height="36.2969" rx="12.5" ry="12.5" style="stroke:#181818;stroke-width:1.5;" width="70" x="111" y="526.6719"/><text fill="#000000" font-family="Microsoft YaHei UI" font-size="14" lengthAdjust="spacing" textLength="50" x="121" y="549.667">doFirst</text><path d="M61,572.9688 L71,572.9688 C86,572.9688 86,544.8203 101,544.8203 L111,544.8203 " fill="none" style="stroke:#181818;stroke-width:1.0;"/><rect fill="#F1F1F1" height="36.2969" rx="12.5" ry="12.5" style="stroke:#181818;stroke-width:1.5;" width="68" x="111" y="582.9688"/><text fill="#000000" font-family="Microsoft YaHei UI" font-size="14" lengthAdjust="spacing" textLength="48" x="121" y="605.9639">doLast</text><path d="M61,572.9688 L71,572.9688 C86,572.9688 86,601.1172 101,601.1172 L111,601.1172 " fill="none" style="stroke:#181818;stroke-width:1.0;"/><rect fill="#F1F1F1" height="36.2969" rx="12.5" ry="12.5" style="stroke:#181818;stroke-width:1.5;" width="102" x="111" y="639.2656"/><text fill="#000000" font-family="Microsoft YaHei UI" font-size="14" lengthAdjust="spacing" textLength="82" x="121" y="662.2607">dependsOn</text><path d="M61,572.9688 L71,572.9688 C86,572.9688 86,657.4141 101,657.4141 L111,657.4141 " fill="none" style="stroke:#181818;stroke-width:1.0;"/><rect fill="#F1F1F1" height="36.2969" rx="12.5" ry="12.5" style="stroke:#181818;stroke-width:1.5;" width="44" x="10" y="958.5313"/><text fill="#000000" font-family="Microsoft YaHei UI" font-size="14" lengthAdjust="spacing" textLength="24" x="20" y="981.5264">ext</text><rect fill="#F1F1F1" height="36.2969" rx="12.5" ry="12.5" style="stroke:#181818;stroke-width:1.5;" width="661" x="104" y="695.5625"/><text fill="#000000" font-family="Microsoft YaHei UI" font-size="14" lengthAdjust="spacing" textLength="641" x="114" y="718.5576">https://docs.gradle.org/current/dsl/org.gradle.api.plugins.ExtraPropertiesExtension.html</text><path d="M54,976.6797 L64,976.6797 C79,976.6797 79,713.7109 94,713.7109 L104,713.7109 " fill="none" style="stroke:#181818;stroke-width:1.0;"/><rect fill="#F1F1F1" height="36.2969" rx="12.5" ry="12.5" style="stroke:#181818;stroke-width:1.5;" width="407" x="104" y="751.8594"/><text fill="#000000" font-family="Microsoft YaHei UI" font-size="14" lengthAdjust="spacing" textLength="387" x="114" y="774.8545">Map&lt;String, Object&gt; properties = new HashMap&lt;&gt;();</text><path d="M54,976.6797 L64,976.6797 C79,976.6797 79,770.0078 94,770.0078 L104,770.0078 " fill="none" style="stroke:#181818;stroke-width:1.0;"/><rect fill="#F1F1F1" height="166.6719" rx="12.5" ry="12.5" style="stroke:#181818;stroke-width:1.5;" width="124" x="104" y="808.1563"/><text fill="#000000" font-family="Microsoft YaHei UI" font-size="14" lengthAdjust="spacing" textLength="4" x="114" y="831.1514"> </text><text fill="#000000" font-family="Microsoft YaHei UI" font-size="14" lengthAdjust="spacing" textLength="37" x="114" y="847.4482">ext {</text><text fill="#000000" font-family="Microsoft YaHei UI" font-size="14" lengthAdjust="spacing" textLength="75" x="130" y="863.7451">foo = 'bar'</text><text fill="#000000" font-family="Microsoft YaHei UI" font-size="14" lengthAdjust="spacing" textLength="88" x="130" y="880.042">mapping = [</text><text fill="#000000" font-family="Microsoft YaHei UI" font-size="14" lengthAdjust="spacing" textLength="38" x="146" y="896.3389">a: '1',</text><text fill="#000000" font-family="Microsoft YaHei UI" font-size="14" lengthAdjust="spacing" textLength="35" x="146" y="912.6357">b: '2'</text><text fill="#000000" font-family="Microsoft YaHei UI" font-size="14" lengthAdjust="spacing" textLength="5" x="130" y="928.9326">]</text><text fill="#000000" font-family="Microsoft YaHei UI" font-size="14" lengthAdjust="spacing" textLength="9" x="114" y="945.2295">}</text><text fill="#000000" font-family="Microsoft YaHei UI" font-size="14" lengthAdjust="spacing" textLength="4" x="114" y="961.5264"> </text><path d="M54,976.6797 L64,976.6797 C79,976.6797 79,891.4922 94,891.4922 L104,891.4922 " fill="none" style="stroke:#181818;stroke-width:1.0;"/><rect fill="#F1F1F1" height="85.1875" rx="12.5" ry="12.5" style="stroke:#181818;stroke-width:1.5;" width="206" x="104" y="994.8281"/><text fill="#000000" font-family="Microsoft YaHei UI" font-size="14" lengthAdjust="spacing" textLength="4" x="114" y="1017.8232"> </text><text fill="#000000" font-family="Microsoft YaHei UI" font-size="14" lengthAdjust="spacing" textLength="117" x="114" y="1034.1201">ext['foo'] = 'bar'</text><text fill="#000000" font-family="Microsoft YaHei UI" font-size="14" lengthAdjust="spacing" textLength="186" x="114" y="1050.417">ext['foo.version'] = '1.2.3'</text><text fill="#000000" font-family="Microsoft YaHei UI" font-size="14" lengthAdjust="spacing" textLength="4" x="114" y="1066.7139"> </text><path d="M54,976.6797 L64,976.6797 C79,976.6797 79,1037.4219 94,1037.4219 L104,1037.4219 " fill="none" style="stroke:#181818;stroke-width:1.0;"/><rect fill="#F1F1F1" height="68.8906" rx="12.5" ry="12.5" style="stroke:#181818;stroke-width:1.5;" width="124" x="104" y="1100.0156"/><text fill="#000000" font-family="Microsoft YaHei UI" font-size="14" lengthAdjust="spacing" textLength="4" x="114" y="1123.0107"> </text><text fill="#000000" font-family="Microsoft YaHei UI" font-size="14" lengthAdjust="spacing" textLength="104" x="114" y="1139.3076">ext.foo = 'bar'</text><text fill="#000000" font-family="Microsoft YaHei UI" font-size="14" lengthAdjust="spacing" textLength="4" x="114" y="1155.6045"> </text><path d="M54,976.6797 L64,976.6797 C79,976.6797 79,1134.4609 94,1134.4609 L104,1134.4609 " fill="none" style="stroke:#181818;stroke-width:1.0;"/><rect fill="#F1F1F1" height="68.8906" rx="12.5" ry="12.5" style="stroke:#181818;stroke-width:1.5;" width="219" x="104" y="1188.9063"/><text fill="#000000" font-family="Microsoft YaHei UI" font-size="14" lengthAdjust="spacing" textLength="4" x="114" y="1211.9014"> </text><text fill="#000000" font-family="Microsoft YaHei UI" font-size="14" lengthAdjust="spacing" textLength="199" x="114" y="1228.1982">ext.mapping = [a: '1', b: '2']</text><text fill="#000000" font-family="Microsoft YaHei UI" font-size="14" lengthAdjust="spacing" textLength="4" x="114" y="1244.4951"> </text><path d="M54,976.6797 L64,976.6797 C79,976.6797 79,1223.3516 94,1223.3516 L104,1223.3516 " fill="none" style="stroke:#181818;stroke-width:1.0;"/><!--MD5=[e428c491c0517355f9389fd8fe4ef8ba]
@startmindmap gradle

skinparam defaultFontName Microsoft YaHei UI

* gradle
** project
*** buildscript
**** repositories
**** dependencies
*** allprojects
*** subprojects
*** project(':project')
**** apply plugin: 'java'
**** sourceCompatibility = 1.8
**** targetCompatibility = 1.8
**** repositories
**** dependencies
**** configurations
***** compile.exclude group: 'io.lettuce', module: 'lettuce-core'
*** configure

* task
** config
** doFirst
** doLast
** dependsOn

* ext
** https://docs.gradle.org/current/dsl/org.gradle.api.plugins.ExtraPropertiesExtension.html
** Map<String, Object> properties = new HashMap<>();
**:
ext {
    foo = 'bar'
    mapping = [
        a: '1',
        b: '2'
    ]
}
;
**:
ext['foo'] = 'bar'
ext['foo.version'] = '1.2.3'
;
**:
ext.foo = 'bar'
;
**:
ext.mapping = [a: '1', b: '2']
;

@endmindmap

PlantUML version 1.2022.10beta1(Unknown compile time)
(GPL source distribution)
Java Runtime: Java(TM) SE Runtime Environment
JVM: Java HotSpot(TM) 64-Bit Server VM
Default Encoding: UTF-8
Language: en
Country: US
--></g></svg>