<?xml version="1.0" encoding="UTF-8" standalone="no"?><svg xmlns="http://www.w3.org/2000/svg" xmlns:xlink="http://www.w3.org/1999/xlink" contentStyleType="text/css" height="453px" preserveAspectRatio="none" style="width:364px;height:453px;background:#FFFFFF;" version="1.1" viewBox="0 0 364 453" width="364px" zoomAndPan="magnify"><defs/><g><rect fill="none" height="26.2969" id="_title" style="stroke:none;stroke-width:1.0;" width="70" x="145.5" y="15"/><text fill="#000000" font-family="sans-serif" font-size="14" font-weight="bold" lengthAdjust="spacing" textLength="60" x="150.5" y="32.9951">爬虫目的</text><rect fill="#F1F1F1" height="36.2969" rx="12.5" ry="12.5" style="stroke:#181818;stroke-width:1.5;" width="76" x="10" y="226.1875"/><text fill="#000000" font-family="sans-serif" font-size="14" lengthAdjust="spacing" textLength="56" x="20" y="249.1826">爬虫任务</text><rect fill="#F1F1F1" height="36.2969" rx="12.5" ry="12.5" style="stroke:#181818;stroke-width:1.5;" width="76" x="136" y="169.8906"/><text fill="#000000" font-family="sans-serif" font-size="14" lengthAdjust="spacing" textLength="56" x="146" y="192.8857">数据采集</text><rect fill="#F1F1F1" height="36.2969" rx="12.5" ry="12.5" style="stroke:#181818;stroke-width:1.5;" width="90" x="262" y="57.2969"/><text fill="#000000" font-family="sans-serif" font-size="14" lengthAdjust="spacing" textLength="70" x="272" y="80.292">静态数据源</text><path d="M212,188.0391 L222,188.0391 C237,188.0391 237,75.4453 252,75.4453 L262,75.4453 " fill="none" style="stroke:#181818;stroke-width:1.0;"/><rect fill="#F1F1F1" height="36.2969" rx="12.5" ry="12.5" style="stroke:#181818;stroke-width:1.5;" width="90" x="262" y="113.5938"/><text fill="#000000" font-family="sans-serif" font-size="14" lengthAdjust="spacing" textLength="70" x="272" y="136.5889">动态数据源</text><path d="M212,188.0391 L222,188.0391 C237,188.0391 237,131.7422 252,131.7422 L262,131.7422 " fill="none" style="stroke:#181818;stroke-width:1.0;"/><rect fill="#F1F1F1" height="36.2969" rx="12.5" ry="12.5" style="stroke:#181818;stroke-width:1.5;" width="76" x="262" y="169.8906"/><text fill="#000000" font-family="sans-serif" font-size="14" lengthAdjust="spacing" textLength="56" x="272" y="192.8857">采集请求</text><path d="M212,188.0391 L222,188.0391 C237,188.0391 237,188.0391 252,188.0391 L262,188.0391 " fill="none" style="stroke:#181818;stroke-width:1.0;"/><rect fill="#F1F1F1" height="36.2969" rx="12.5" ry="12.5" style="stroke:#181818;stroke-width:1.5;" width="76" x="262" y="226.1875"/><text fill="#000000" font-family="sans-serif" font-size="14" lengthAdjust="spacing" textLength="56" x="272" y="249.1826">采集结果</text><path d="M212,188.0391 L222,188.0391 C237,188.0391 237,244.3359 252,244.3359 L262,244.3359 " fill="none" style="stroke:#181818;stroke-width:1.0;"/><rect fill="#F1F1F1" height="36.2969" rx="12.5" ry="12.5" style="stroke:#181818;stroke-width:1.5;" width="76" x="262" y="282.4844"/><text fill="#000000" font-family="sans-serif" font-size="14" lengthAdjust="spacing" textLength="56" x="272" y="305.4795">错误重试</text><path d="M212,188.0391 L222,188.0391 C237,188.0391 237,300.6328 252,300.6328 L262,300.6328 " fill="none" style="stroke:#181818;stroke-width:1.0;"/><path d="M86,244.3359 L96,244.3359 C111,244.3359 111,188.0391 126,188.0391 L136,188.0391 " fill="none" style="stroke:#181818;stroke-width:1.0;"/><rect fill="#F1F1F1" height="36.2969" rx="12.5" ry="12.5" style="stroke:#181818;stroke-width:1.5;" width="76" x="136" y="366.9297"/><text fill="#000000" font-family="sans-serif" font-size="14" lengthAdjust="spacing" textLength="56" x="146" y="389.9248">资源争夺</text><rect fill="#F1F1F1" height="36.2969" rx="12.5" ry="12.5" style="stroke:#181818;stroke-width:1.5;" width="76" x="262" y="338.7813"/><text fill="#000000" font-family="sans-serif" font-size="14" lengthAdjust="spacing" textLength="56" x="272" y="361.7764">请求次数</text><path d="M212,385.0781 L222,385.0781 C237,385.0781 237,356.9297 252,356.9297 L262,356.9297 " fill="none" style="stroke:#181818;stroke-width:1.0;"/><rect fill="#F1F1F1" height="36.2969" rx="12.5" ry="12.5" style="stroke:#181818;stroke-width:1.5;" width="76" x="262" y="395.0781"/><text fill="#000000" font-family="sans-serif" font-size="14" lengthAdjust="spacing" textLength="56" x="272" y="418.0732">成功判断</text><path d="M212,385.0781 L222,385.0781 C237,385.0781 237,413.2266 252,413.2266 L262,413.2266 " fill="none" style="stroke:#181818;stroke-width:1.0;"/><path d="M86,244.3359 L96,244.3359 C111,244.3359 111,385.0781 126,385.0781 L136,385.0781 " fill="none" style="stroke:#181818;stroke-width:1.0;"/><!--MD5=[0edc4e316df089dab988cd3220ac1f92]
@startmindmap 爬虫任务

title 爬虫目的

* 爬虫任务
** 数据采集
*** 静态数据源
*** 动态数据源
*** 采集请求
*** 采集结果
*** 错误重试
** 资源争夺
*** 请求次数
*** 成功判断

@endmindmap

PlantUML version 1.2022.10beta1(Unknown compile time)
(GPL source distribution)
Java Runtime: Java(TM) SE Runtime Environment
JVM: Java HotSpot(TM) 64-Bit Server VM
Default Encoding: UTF-8
Language: en
Country: US
--></g></svg>