<?xml version="1.0" encoding="UTF-8" standalone="no"?><svg xmlns="http://www.w3.org/2000/svg" xmlns:xlink="http://www.w3.org/1999/xlink" contentStyleType="text/css" height="190px" preserveAspectRatio="none" style="width:214px;height:190px;background:#FFFFFF;" version="1.1" viewBox="0 0 214 190" width="214px" zoomAndPan="magnify"><defs/><g><rect fill="#F1F1F1" height="36.2969" rx="12.5" ry="12.5" style="stroke:#181818;stroke-width:1.5;" width="74" x="10" y="76.2969"/><text fill="#000000" font-family="sans-serif" font-size="14" lengthAdjust="spacing" textLength="54" x="20" y="99.292">mission</text><rect fill="#F1F1F1" height="36.2969" rx="12.5" ry="12.5" style="stroke:#181818;stroke-width:1.5;" width="50" x="134" y="20"/><text fill="#000000" font-family="sans-serif" font-size="14" lengthAdjust="spacing" textLength="30" x="144" y="42.9951">args</text><path d="M84,94.4453 L94,94.4453 C109,94.4453 109,38.1484 124,38.1484 L134,38.1484 " fill="none" style="stroke:#181818;stroke-width:1.0;"/><rect fill="#F1F1F1" height="36.2969" rx="12.5" ry="12.5" style="stroke:#181818;stroke-width:1.5;" width="58" x="134" y="76.2969"/><text fill="#000000" font-family="sans-serif" font-size="14" lengthAdjust="spacing" textLength="38" x="144" y="99.292">tasks</text><path d="M84,94.4453 L94,94.4453 C109,94.4453 109,94.4453 124,94.4453 L134,94.4453 " fill="none" style="stroke:#181818;stroke-width:1.0;"/><rect fill="#F1F1F1" height="36.2969" rx="12.5" ry="12.5" style="stroke:#181818;stroke-width:1.5;" width="68" x="134" y="132.5938"/><text fill="#000000" font-family="sans-serif" font-size="14" lengthAdjust="spacing" textLength="48" x="144" y="155.5889">results</text><path d="M84,94.4453 L94,94.4453 C109,94.4453 109,150.7422 124,150.7422 L134,150.7422 " fill="none" style="stroke:#181818;stroke-width:1.0;"/><!--MD5=[e373413523eefc5cf02d62be2f679263]
@startmindmap auto-mission

* mission
** args
** tasks
** results

@endmindmap

PlantUML version 1.2022.6beta1(Unknown compile time)
(GPL source distribution)
Java Runtime: Java(TM) SE Runtime Environment
JVM: Java HotSpot(TM) 64-Bit Server VM
Default Encoding: UTF-8
Language: en
Country: US
--></g></svg>