<?xml version="1.0" encoding="us-ascii" standalone="no"?><svg xmlns="http://www.w3.org/2000/svg" xmlns:xlink="http://www.w3.org/1999/xlink" contentStyleType="text/css" height="490px" preserveAspectRatio="none" style="width:318px;height:490px;background:#FFFFFF;" version="1.1" viewBox="0 0 318 490" width="318px" zoomAndPan="magnify"><defs/><g><text fill="#000000" font-family="sans-serif" font-size="14" font-weight="bold" lengthAdjust="spacing" textLength="60" x="130.5" y="27.9951">&#29228;&#21462;&#27969;&#31243;</text><rect fill="none" height="305.3281" style="stroke:#000000;stroke-width:1.5;" width="302" x="10" y="90.5938"/><rect fill="none" height="173.7969" style="stroke:#000000;stroke-width:1.5;" width="141" x="20" y="172.9922"/><line style="stroke:#181818;stroke-width:0.5;stroke-dasharray:5.0,5.0;" x1="51" x2="51" y1="73.5938" y2="455.0547"/><line style="stroke:#181818;stroke-width:0.5;stroke-dasharray:5.0,5.0;" x1="166" x2="166" y1="73.5938" y2="455.0547"/><line style="stroke:#181818;stroke-width:0.5;stroke-dasharray:5.0,5.0;" x1="260" x2="260" y1="73.5938" y2="455.0547"/><rect fill="#E2E2F0" height="30.2969" rx="2.5" ry="2.5" style="stroke:#181818;stroke-width:0.5;" width="42" x="30" y="42.2969"/><text fill="#000000" font-family="sans-serif" font-size="14" lengthAdjust="spacing" textLength="28" x="37" y="62.292">&#20219;&#21153;</text><rect fill="#E2E2F0" height="30.2969" rx="2.5" ry="2.5" style="stroke:#181818;stroke-width:0.5;" width="42" x="30" y="454.0547"/><text fill="#000000" font-family="sans-serif" font-size="14" lengthAdjust="spacing" textLength="28" x="37" y="474.0498">&#20219;&#21153;</text><rect fill="#E2E2F0" height="30.2969" rx="2.5" ry="2.5" style="stroke:#181818;stroke-width:0.5;" width="84" x="124" y="42.2969"/><text fill="#000000" font-family="sans-serif" font-size="14" lengthAdjust="spacing" textLength="70" x="131" y="62.292">&#38745;&#24577;&#25968;&#25454;&#28304;</text><rect fill="#E2E2F0" height="30.2969" rx="2.5" ry="2.5" style="stroke:#181818;stroke-width:0.5;" width="84" x="124" y="454.0547"/><text fill="#000000" font-family="sans-serif" font-size="14" lengthAdjust="spacing" textLength="70" x="131" y="474.0498">&#38745;&#24577;&#25968;&#25454;&#28304;</text><rect fill="#E2E2F0" height="30.2969" rx="2.5" ry="2.5" style="stroke:#181818;stroke-width:0.5;" width="84" x="218" y="42.2969"/><text fill="#000000" font-family="sans-serif" font-size="14" lengthAdjust="spacing" textLength="70" x="225" y="62.292">&#21160;&#24577;&#25968;&#25454;&#28304;</text><rect fill="#E2E2F0" height="30.2969" rx="2.5" ry="2.5" style="stroke:#181818;stroke-width:0.5;" width="84" x="218" y="454.0547"/><text fill="#000000" font-family="sans-serif" font-size="14" lengthAdjust="spacing" textLength="70" x="225" y="474.0498">&#21160;&#24577;&#25968;&#25454;&#28304;</text><path d="M10,90.5938 L88,90.5938 L88,97.7266 L78,107.7266 L10,107.7266 L10,90.5938 " fill="#EEEEEE" style="stroke:#000000;stroke-width:1.5;"/><rect fill="none" height="305.3281" style="stroke:#000000;stroke-width:1.5;" width="302" x="10" y="90.5938"/><text fill="#000000" font-family="sans-serif" font-size="13" font-weight="bold" lengthAdjust="spacing" textLength="33" x="25" y="103.6606">loop</text><text fill="#000000" font-family="sans-serif" font-size="11" font-weight="bold" lengthAdjust="spacing" textLength="34" x="103" y="102.8042">[N &#27425;]</text><polygon fill="#181818" points="62,124.8594,52,128.8594,62,132.8594,58,128.8594" style="stroke:#181818;stroke-width:1.0;"/><polygon fill="#181818" points="154,124.8594,164,128.8594,154,132.8594,158,128.8594" style="stroke:#181818;stroke-width:1.0;"/><line style="stroke:#181818;stroke-width:1.0;" x1="56" x2="160" y1="128.8594" y2="128.8594"/><text fill="#000000" font-family="sans-serif" font-size="13" font-weight="bold" lengthAdjust="spacing" textLength="9" x="68" y="123.7935">1</text><text fill="#000000" font-family="sans-serif" font-size="13" lengthAdjust="spacing" textLength="78" x="81" y="123.7935">&#33719;&#21462;&#38745;&#24577;&#21442;&#25968;</text><polygon fill="#181818" points="62,153.9922,52,157.9922,62,161.9922,58,157.9922" style="stroke:#181818;stroke-width:1.0;"/><polygon fill="#181818" points="248,153.9922,258,157.9922,248,161.9922,252,157.9922" style="stroke:#181818;stroke-width:1.0;"/><line style="stroke:#181818;stroke-width:1.0;" x1="56" x2="254" y1="157.9922" y2="157.9922"/><text fill="#000000" font-family="sans-serif" font-size="13" font-weight="bold" lengthAdjust="spacing" textLength="9" x="68" y="152.9263">2</text><text fill="#000000" font-family="sans-serif" font-size="13" lengthAdjust="spacing" textLength="78" x="81" y="152.9263">&#33719;&#21462;&#21160;&#24577;&#21442;&#25968;</text><path d="M20,172.9922 L98,172.9922 L98,180.125 L88,190.125 L20,190.125 L20,172.9922 " fill="#EEEEEE" style="stroke:#000000;stroke-width:1.5;"/><rect fill="none" height="173.7969" style="stroke:#000000;stroke-width:1.5;" width="141" x="20" y="172.9922"/><text fill="#000000" font-family="sans-serif" font-size="13" font-weight="bold" lengthAdjust="spacing" textLength="33" x="35" y="186.0591">loop</text><text fill="#000000" font-family="sans-serif" font-size="11" font-weight="bold" lengthAdjust="spacing" textLength="34" x="113" y="185.2026">[N &#27425;]</text><line style="stroke:#181818;stroke-width:1.0;" x1="51" x2="93" y1="226.3906" y2="226.3906"/><line style="stroke:#181818;stroke-width:1.0;" x1="93" x2="93" y1="226.3906" y2="239.3906"/><line style="stroke:#181818;stroke-width:1.0;" x1="52" x2="93" y1="239.3906" y2="239.3906"/><polygon fill="#181818" points="62,235.3906,52,239.3906,62,243.3906,58,239.3906" style="stroke:#181818;stroke-width:1.0;"/><text fill="#000000" font-family="sans-serif" font-size="13" font-weight="bold" lengthAdjust="spacing" textLength="8" x="58" y="213.7583">3</text><text fill="#000000" font-family="sans-serif" font-size="13" lengthAdjust="spacing" textLength="56" x="70" y="206.1919">http &#33050;&#26412;</text><text fill="#000000" font-family="sans-serif" font-size="13" lengthAdjust="spacing" textLength="52" x="70" y="221.3247">&#21457;&#36215;&#35831;&#27714;</text><line style="stroke:#181818;stroke-width:1.0;" x1="51" x2="93" y1="283.6563" y2="283.6563"/><line style="stroke:#181818;stroke-width:1.0;" x1="93" x2="93" y1="283.6563" y2="296.6563"/><line style="stroke:#181818;stroke-width:1.0;" x1="52" x2="93" y1="296.6563" y2="296.6563"/><polygon fill="#181818" points="62,292.6563,52,296.6563,62,300.6563,58,296.6563" style="stroke:#181818;stroke-width:1.0;"/><text fill="#000000" font-family="sans-serif" font-size="13" font-weight="bold" lengthAdjust="spacing" textLength="9" x="58" y="271.0239">4</text><text fill="#000000" font-family="sans-serif" font-size="13" lengthAdjust="spacing" textLength="75" x="71" y="263.4575">python &#33050;&#26412;</text><text fill="#000000" font-family="sans-serif" font-size="13" lengthAdjust="spacing" textLength="52" x="71" y="278.5903">&#22788;&#29702;&#21709;&#24212;</text><line style="stroke:#181818;stroke-width:1.0;" x1="51" x2="93" y1="325.7891" y2="325.7891"/><line style="stroke:#181818;stroke-width:1.0;" x1="93" x2="93" y1="325.7891" y2="338.7891"/><line style="stroke:#181818;stroke-width:1.0;" x1="52" x2="93" y1="338.7891" y2="338.7891"/><polygon fill="#181818" points="62,334.7891,52,338.7891,62,342.7891,58,338.7891" style="stroke:#181818;stroke-width:1.0;"/><text fill="#000000" font-family="sans-serif" font-size="13" font-weight="bold" lengthAdjust="spacing" textLength="9" x="58" y="320.7231">5</text><text fill="#000000" font-family="sans-serif" font-size="13" lengthAdjust="spacing" textLength="78" x="71" y="320.7231">&#20445;&#23384;&#21160;&#24577;&#21442;&#25968;</text><line style="stroke:#181818;stroke-width:1.0;" x1="51" x2="93" y1="374.9219" y2="374.9219"/><line style="stroke:#181818;stroke-width:1.0;" x1="93" x2="93" y1="374.9219" y2="387.9219"/><line style="stroke:#181818;stroke-width:1.0;" x1="52" x2="93" y1="387.9219" y2="387.9219"/><polygon fill="#181818" points="62,383.9219,52,387.9219,62,391.9219,58,387.9219" style="stroke:#181818;stroke-width:1.0;"/><text fill="#000000" font-family="sans-serif" font-size="13" font-weight="bold" lengthAdjust="spacing" textLength="9" x="58" y="369.856">6</text><text fill="#000000" font-family="sans-serif" font-size="13" lengthAdjust="spacing" textLength="52" x="71" y="369.856">&#20445;&#23384;&#32467;&#26524;</text><line style="stroke:#181818;stroke-width:1.0;" x1="51" x2="93" y1="424.0547" y2="424.0547"/><line style="stroke:#181818;stroke-width:1.0;" x1="93" x2="93" y1="424.0547" y2="437.0547"/><line style="stroke:#181818;stroke-width:1.0;" x1="52" x2="93" y1="437.0547" y2="437.0547"/><polygon fill="#181818" points="62,433.0547,52,437.0547,62,441.0547,58,437.0547" style="stroke:#181818;stroke-width:1.0;"/><text fill="#000000" font-family="sans-serif" font-size="13" font-weight="bold" lengthAdjust="spacing" textLength="9" x="58" y="418.9888">7</text><text fill="#000000" font-family="sans-serif" font-size="13" lengthAdjust="spacing" textLength="52" x="71" y="418.9888">&#23548;&#20986;&#32467;&#26524;</text><!--SRC=[AyaioKbLUDwnvcd_j6TR6v-lwERYAaWiAibCpYn8p2jHUB9xzzEkXIX2B-VEVDRG-6pgXcUzwvxjce0YzxHh1OeSLs9fINvUQMvIQX4NLqv-Ve62dyApDGkv5800OhI2ZQuTkf5M2Y_wjWCT115-sjy4b47NWcOJJ0j464aBcgL8fW0DWR2i539AIWeKNhJCUZPdJKpUq_w9BxPkVx5- -xEDJNZq55IMPEJd8NGjQNa-eUtfvDwdkwRWqVLa_zodQsTWk38rBuKBduRdkoS_cpU72wGCKydJzNkUjk-2A040]--></g></svg>