<?xml version="1.0" encoding="UTF-8" standalone="no"?><svg xmlns="http://www.w3.org/2000/svg" xmlns:xlink="http://www.w3.org/1999/xlink" contentStyleType="text/css" height="1091px" preserveAspectRatio="none" style="width:1118px;height:1091px;background:#FFFFFF;" version="1.1" viewBox="0 0 1118 1091" width="1118px" zoomAndPan="magnify"><defs/><g><rect fill="#F1F1F1" height="36.2969" rx="12.5" ry="12.5" style="stroke:#181818;stroke-width:1.5;" width="76" x="10" y="526.6719"/><text fill="#000000" font-family="sans-serif" font-size="14" lengthAdjust="spacing" textLength="56" x="20" y="549.667">数据解码</text><rect fill="#F1F1F1" height="36.2969" rx="12.5" ry="12.5" style="stroke:#181818;stroke-width:1.5;" width="48" x="136" y="188.8906"/><text fill="#000000" font-family="sans-serif" font-size="14" lengthAdjust="spacing" textLength="28" x="146" y="211.8857">定位</text><rect fill="#F1F1F1" height="36.2969" rx="12.5" ry="12.5" style="stroke:#181818;stroke-width:1.5;" width="90" x="234" y="48.1484"/><text fill="#000000" font-family="sans-serif" font-size="14" lengthAdjust="spacing" textLength="70" x="244" y="71.1436">从哪里开始</text><rect fill="#F1F1F1" height="36.2969" rx="12.5" ry="12.5" style="stroke:#181818;stroke-width:1.5;" width="76" x="374" y="20"/><text fill="#000000" font-family="sans-serif" font-size="14" lengthAdjust="spacing" textLength="56" x="384" y="42.9951">固定位置</text><rect fill="#F1F1F1" height="36.2969" rx="12.5" ry="12.5" style="stroke:#181818;stroke-width:1.5;" width="219" x="500" y="20"/><text fill="#000000" font-family="sans-serif" font-size="14" lengthAdjust="spacing" textLength="199" x="510" y="42.9951">【某位置】例如：从下标 1 开始</text><path d="M450,38.1484 L460,38.1484 C475,38.1484 475,38.1484 490,38.1484 L500,38.1484 " fill="none" style="stroke:#181818;stroke-width:1.0;"/><path d="M324,66.2969 L334,66.2969 C349,66.2969 349,38.1484 364,38.1484 L374,38.1484 " fill="none" style="stroke:#181818;stroke-width:1.0;"/><rect fill="#F1F1F1" height="36.2969" rx="12.5" ry="12.5" style="stroke:#181818;stroke-width:1.5;" width="76" x="374" y="76.2969"/><text fill="#000000" font-family="sans-serif" font-size="14" lengthAdjust="spacing" textLength="56" x="384" y="99.292">偏移位置</text><rect fill="#F1F1F1" height="36.2969" rx="12.5" ry="12.5" style="stroke:#181818;stroke-width:1.5;" width="258" x="500" y="76.2969"/><text fill="#000000" font-family="sans-serif" font-size="14" lengthAdjust="spacing" textLength="238" x="510" y="99.292">【某字段】例如：从 type 字段后开始</text><path d="M450,94.4453 L460,94.4453 C475,94.4453 475,94.4453 490,94.4453 L500,94.4453 " fill="none" style="stroke:#181818;stroke-width:1.0;"/><path d="M324,66.2969 L334,66.2969 C349,66.2969 349,94.4453 364,94.4453 L374,94.4453 " fill="none" style="stroke:#181818;stroke-width:1.0;"/><path d="M184,207.0391 L194,207.0391 C209,207.0391 209,66.2969 224,66.2969 L234,66.2969 " fill="none" style="stroke:#181818;stroke-width:1.0;"/><rect fill="#F1F1F1" height="36.2969" rx="12.5" ry="12.5" style="stroke:#181818;stroke-width:1.5;" width="90" x="234" y="160.7422"/><text fill="#000000" font-family="sans-serif" font-size="14" lengthAdjust="spacing" textLength="70" x="244" y="183.7373">到哪里结束</text><rect fill="#F1F1F1" height="36.2969" rx="12.5" ry="12.5" style="stroke:#181818;stroke-width:1.5;" width="76" x="374" y="132.5938"/><text fill="#000000" font-family="sans-serif" font-size="14" lengthAdjust="spacing" textLength="56" x="384" y="155.5889">固定长度</text><rect fill="#F1F1F1" height="36.2969" rx="12.5" ry="12.5" style="stroke:#181818;stroke-width:1.5;" width="200" x="500" y="132.5938"/><text fill="#000000" font-family="sans-serif" font-size="14" lengthAdjust="spacing" textLength="180" x="510" y="155.5889">【固定长度】例如：2 个字节</text><path d="M450,150.7422 L460,150.7422 C475,150.7422 475,150.7422 490,150.7422 L500,150.7422 " fill="none" style="stroke:#181818;stroke-width:1.0;"/><path d="M324,178.8906 L334,178.8906 C349,178.8906 349,150.7422 364,150.7422 L374,150.7422 " fill="none" style="stroke:#181818;stroke-width:1.0;"/><rect fill="#F1F1F1" height="36.2969" rx="12.5" ry="12.5" style="stroke:#181818;stroke-width:1.5;" width="76" x="374" y="188.8906"/><text fill="#000000" font-family="sans-serif" font-size="14" lengthAdjust="spacing" textLength="56" x="384" y="211.8857">指定长度</text><rect fill="#F1F1F1" height="36.2969" rx="12.5" ry="12.5" style="stroke:#181818;stroke-width:1.5;" width="606" x="500" y="188.8906"/><text fill="#000000" font-family="sans-serif" font-size="14" lengthAdjust="spacing" textLength="586" x="510" y="211.8857">【某字段的值】例如：field_value 为 5 表示 5 个字节           asdasasdasssssssssssssssssss</text><path d="M450,207.0391 L460,207.0391 C475,207.0391 475,207.0391 490,207.0391 L500,207.0391 " fill="none" style="stroke:#181818;stroke-width:1.0;"/><path d="M324,178.8906 L334,178.8906 C349,178.8906 349,207.0391 364,207.0391 L374,207.0391 " fill="none" style="stroke:#181818;stroke-width:1.0;"/><path d="M184,207.0391 L194,207.0391 C209,207.0391 209,178.8906 224,178.8906 L234,178.8906 " fill="none" style="stroke:#181818;stroke-width:1.0;"/><rect fill="#F1F1F1" height="36.2969" rx="12.5" ry="12.5" style="stroke:#181818;stroke-width:1.5;" width="90" x="234" y="301.4844"/><text fill="#000000" font-family="sans-serif" font-size="14" lengthAdjust="spacing" textLength="70" x="244" y="324.4795">是否是标识</text><rect fill="#F1F1F1" height="36.2969" rx="12.5" ry="12.5" style="stroke:#181818;stroke-width:1.5;" width="76" x="374" y="245.1875"/><text fill="#000000" font-family="sans-serif" font-size="14" lengthAdjust="spacing" textLength="56" x="384" y="268.1826">头部标识</text><path d="M324,319.6328 L334,319.6328 C349,319.6328 349,263.3359 364,263.3359 L374,263.3359 " fill="none" style="stroke:#181818;stroke-width:1.0;"/><rect fill="#F1F1F1" height="36.2969" rx="12.5" ry="12.5" style="stroke:#181818;stroke-width:1.5;" width="76" x="374" y="301.4844"/><text fill="#000000" font-family="sans-serif" font-size="14" lengthAdjust="spacing" textLength="56" x="384" y="324.4795">身部标识</text><path d="M324,319.6328 L334,319.6328 C349,319.6328 349,319.6328 364,319.6328 L374,319.6328 " fill="none" style="stroke:#181818;stroke-width:1.0;"/><rect fill="#F1F1F1" height="36.2969" rx="12.5" ry="12.5" style="stroke:#181818;stroke-width:1.5;" width="76" x="374" y="357.7813"/><text fill="#000000" font-family="sans-serif" font-size="14" lengthAdjust="spacing" textLength="56" x="384" y="380.7764">尾部标识</text><path d="M324,319.6328 L334,319.6328 C349,319.6328 349,375.9297 364,375.9297 L374,375.9297 " fill="none" style="stroke:#181818;stroke-width:1.0;"/><path d="M184,207.0391 L194,207.0391 C209,207.0391 209,319.6328 224,319.6328 L234,319.6328 " fill="none" style="stroke:#181818;stroke-width:1.0;"/><path d="M86,544.8203 L96,544.8203 C111,544.8203 111,207.0391 126,207.0391 L136,207.0391 " fill="none" style="stroke:#181818;stroke-width:1.0;"/><rect fill="#F1F1F1" height="36.2969" rx="12.5" ry="12.5" style="stroke:#181818;stroke-width:1.5;" width="48" x="136" y="723.7109"/><text fill="#000000" font-family="sans-serif" font-size="14" lengthAdjust="spacing" textLength="28" x="146" y="746.7061">解析</text><rect fill="#F1F1F1" height="36.2969" rx="12.5" ry="12.5" style="stroke:#181818;stroke-width:1.5;" width="76" x="234" y="442.2266"/><text fill="#000000" font-family="sans-serif" font-size="14" lengthAdjust="spacing" textLength="56" x="244" y="465.2217">读取顺序</text><rect fill="#F1F1F1" height="36.2969" rx="12.5" ry="12.5" style="stroke:#181818;stroke-width:1.5;" width="62" x="360" y="414.0781"/><text fill="#000000" font-family="sans-serif" font-size="14" lengthAdjust="spacing" textLength="42" x="370" y="437.0732">大端序</text><rect fill="#F1F1F1" height="36.2969" rx="12.5" ry="12.5" style="stroke:#181818;stroke-width:1.5;" width="54" x="472" y="414.0781"/><text fill="#000000" font-family="sans-serif" font-size="14" lengthAdjust="spacing" textLength="34" x="482" y="437.0732">HIGT</text><path d="M422,432.2266 L432,432.2266 C447,432.2266 447,432.2266 462,432.2266 L472,432.2266 " fill="none" style="stroke:#181818;stroke-width:1.0;"/><path d="M310,460.375 L320,460.375 C335,460.375 335,432.2266 350,432.2266 L360,432.2266 " fill="none" style="stroke:#181818;stroke-width:1.0;"/><rect fill="#F1F1F1" height="36.2969" rx="12.5" ry="12.5" style="stroke:#181818;stroke-width:1.5;" width="62" x="360" y="470.375"/><text fill="#000000" font-family="sans-serif" font-size="14" lengthAdjust="spacing" textLength="42" x="370" y="493.3701">小端序</text><rect fill="#F1F1F1" height="36.2969" rx="12.5" ry="12.5" style="stroke:#181818;stroke-width:1.5;" width="53" x="472" y="470.375"/><text fill="#000000" font-family="sans-serif" font-size="14" lengthAdjust="spacing" textLength="33" x="482" y="493.3701">LOW</text><path d="M422,488.5234 L432,488.5234 C447,488.5234 447,488.5234 462,488.5234 L472,488.5234 " fill="none" style="stroke:#181818;stroke-width:1.0;"/><path d="M310,460.375 L320,460.375 C335,460.375 335,488.5234 350,488.5234 L360,488.5234 " fill="none" style="stroke:#181818;stroke-width:1.0;"/><path d="M184,741.8594 L194,741.8594 C209,741.8594 209,460.375 224,460.375 L234,460.375 " fill="none" style="stroke:#181818;stroke-width:1.0;"/><rect fill="#F1F1F1" height="36.2969" rx="12.5" ry="12.5" style="stroke:#181818;stroke-width:1.5;" width="76" x="234" y="780.0078"/><text fill="#000000" font-family="sans-serif" font-size="14" lengthAdjust="spacing" textLength="56" x="244" y="803.0029">数据类型</text><rect fill="#F1F1F1" height="36.2969" rx="12.5" ry="12.5" style="stroke:#181818;stroke-width:1.5;" width="57" x="360" y="526.6719"/><text fill="#000000" font-family="sans-serif" font-size="14" lengthAdjust="spacing" textLength="37" x="370" y="549.667">BYTE</text><rect fill="#F1F1F1" height="36.2969" rx="12.5" ry="12.5" style="stroke:#181818;stroke-width:1.5;" width="61" x="467" y="526.6719"/><text fill="#000000" font-family="sans-serif" font-size="14" lengthAdjust="spacing" textLength="41" x="477" y="549.667">1 字节</text><path d="M417,544.8203 L427,544.8203 C442,544.8203 442,544.8203 457,544.8203 L467,544.8203 " fill="none" style="stroke:#181818;stroke-width:1.0;"/><path d="M310,798.1563 L320,798.1563 C335,798.1563 335,544.8203 350,544.8203 L360,544.8203 " fill="none" style="stroke:#181818;stroke-width:1.0;"/><rect fill="#F1F1F1" height="36.2969" rx="12.5" ry="12.5" style="stroke:#181818;stroke-width:1.5;" width="66" x="360" y="582.9688"/><text fill="#000000" font-family="sans-serif" font-size="14" lengthAdjust="spacing" textLength="46" x="370" y="605.9639">BYTES</text><rect fill="#F1F1F1" height="36.2969" rx="12.5" ry="12.5" style="stroke:#181818;stroke-width:1.5;" width="62" x="476" y="582.9688"/><text fill="#000000" font-family="sans-serif" font-size="14" lengthAdjust="spacing" textLength="42" x="486" y="605.9639">N 字节</text><path d="M426,601.1172 L436,601.1172 C451,601.1172 451,601.1172 466,601.1172 L476,601.1172 " fill="none" style="stroke:#181818;stroke-width:1.0;"/><path d="M310,798.1563 L320,798.1563 C335,798.1563 335,601.1172 350,601.1172 L360,601.1172 " fill="none" style="stroke:#181818;stroke-width:1.0;"/><rect fill="#F1F1F1" height="36.2969" rx="12.5" ry="12.5" style="stroke:#181818;stroke-width:1.5;" width="69" x="360" y="639.2656"/><text fill="#000000" font-family="sans-serif" font-size="14" lengthAdjust="spacing" textLength="49" x="370" y="662.2607">SHORT</text><rect fill="#F1F1F1" height="36.2969" rx="12.5" ry="12.5" style="stroke:#181818;stroke-width:1.5;" width="60" x="479" y="639.2656"/><text fill="#000000" font-family="sans-serif" font-size="14" lengthAdjust="spacing" textLength="40" x="489" y="662.2607">2 字节</text><path d="M429,657.4141 L439,657.4141 C454,657.4141 454,657.4141 469,657.4141 L479,657.4141 " fill="none" style="stroke:#181818;stroke-width:1.0;"/><path d="M310,798.1563 L320,798.1563 C335,798.1563 335,657.4141 350,657.4141 L360,657.4141 " fill="none" style="stroke:#181818;stroke-width:1.0;"/><rect fill="#F1F1F1" height="36.2969" rx="12.5" ry="12.5" style="stroke:#181818;stroke-width:1.5;" width="77" x="360" y="695.5625"/><text fill="#000000" font-family="sans-serif" font-size="14" lengthAdjust="spacing" textLength="57" x="370" y="718.5576">MEDIUM</text><rect fill="#F1F1F1" height="36.2969" rx="12.5" ry="12.5" style="stroke:#181818;stroke-width:1.5;" width="61" x="487" y="695.5625"/><text fill="#000000" font-family="sans-serif" font-size="14" lengthAdjust="spacing" textLength="41" x="497" y="718.5576">3 字节</text><path d="M437,713.7109 L447,713.7109 C462,713.7109 462,713.7109 477,713.7109 L487,713.7109 " fill="none" style="stroke:#181818;stroke-width:1.0;"/><path d="M310,798.1563 L320,798.1563 C335,798.1563 335,713.7109 350,713.7109 L360,713.7109 " fill="none" style="stroke:#181818;stroke-width:1.0;"/><rect fill="#F1F1F1" height="36.2969" rx="12.5" ry="12.5" style="stroke:#181818;stroke-width:1.5;" width="43" x="360" y="751.8594"/><text fill="#000000" font-family="sans-serif" font-size="14" lengthAdjust="spacing" textLength="23" x="370" y="774.8545">INT</text><rect fill="#F1F1F1" height="36.2969" rx="12.5" ry="12.5" style="stroke:#181818;stroke-width:1.5;" width="60" x="453" y="751.8594"/><text fill="#000000" font-family="sans-serif" font-size="14" lengthAdjust="spacing" textLength="40" x="463" y="774.8545">4 字节</text><path d="M403,770.0078 L413,770.0078 C428,770.0078 428,770.0078 443,770.0078 L453,770.0078 " fill="none" style="stroke:#181818;stroke-width:1.0;"/><path d="M310,798.1563 L320,798.1563 C335,798.1563 335,770.0078 350,770.0078 L360,770.0078 " fill="none" style="stroke:#181818;stroke-width:1.0;"/><rect fill="#F1F1F1" height="36.2969" rx="12.5" ry="12.5" style="stroke:#181818;stroke-width:1.5;" width="60" x="360" y="808.1563"/><text fill="#000000" font-family="sans-serif" font-size="14" lengthAdjust="spacing" textLength="40" x="370" y="831.1514">LONG</text><rect fill="#F1F1F1" height="36.2969" rx="12.5" ry="12.5" style="stroke:#181818;stroke-width:1.5;" width="60" x="470" y="808.1563"/><text fill="#000000" font-family="sans-serif" font-size="14" lengthAdjust="spacing" textLength="40" x="480" y="831.1514">8 字节</text><path d="M420,826.3047 L430,826.3047 C445,826.3047 445,826.3047 460,826.3047 L470,826.3047 " fill="none" style="stroke:#181818;stroke-width:1.0;"/><path d="M310,798.1563 L320,798.1563 C335,798.1563 335,826.3047 350,826.3047 L360,826.3047 " fill="none" style="stroke:#181818;stroke-width:1.0;"/><rect fill="#F1F1F1" height="36.2969" rx="12.5" ry="12.5" style="stroke:#181818;stroke-width:1.5;" width="66" x="360" y="864.4531"/><text fill="#000000" font-family="sans-serif" font-size="14" lengthAdjust="spacing" textLength="46" x="370" y="887.4482">FLOAT</text><rect fill="#F1F1F1" height="36.2969" rx="12.5" ry="12.5" style="stroke:#181818;stroke-width:1.5;" width="60" x="476" y="864.4531"/><text fill="#000000" font-family="sans-serif" font-size="14" lengthAdjust="spacing" textLength="40" x="486" y="887.4482">4 字节</text><path d="M426,882.6016 L436,882.6016 C451,882.6016 451,882.6016 466,882.6016 L476,882.6016 " fill="none" style="stroke:#181818;stroke-width:1.0;"/><path d="M310,798.1563 L320,798.1563 C335,798.1563 335,882.6016 350,882.6016 L360,882.6016 " fill="none" style="stroke:#181818;stroke-width:1.0;"/><rect fill="#F1F1F1" height="36.2969" rx="12.5" ry="12.5" style="stroke:#181818;stroke-width:1.5;" width="78" x="360" y="920.75"/><text fill="#000000" font-family="sans-serif" font-size="14" lengthAdjust="spacing" textLength="58" x="370" y="943.7451">DOUBLE</text><rect fill="#F1F1F1" height="36.2969" rx="12.5" ry="12.5" style="stroke:#181818;stroke-width:1.5;" width="60" x="488" y="920.75"/><text fill="#000000" font-family="sans-serif" font-size="14" lengthAdjust="spacing" textLength="40" x="498" y="943.7451">8 字节</text><path d="M438,938.8984 L448,938.8984 C463,938.8984 463,938.8984 478,938.8984 L488,938.8984 " fill="none" style="stroke:#181818;stroke-width:1.0;"/><path d="M310,798.1563 L320,798.1563 C335,798.1563 335,938.8984 350,938.8984 L360,938.8984 " fill="none" style="stroke:#181818;stroke-width:1.0;"/><rect fill="#F1F1F1" height="36.2969" rx="12.5" ry="12.5" style="stroke:#181818;stroke-width:1.5;" width="49" x="360" y="977.0469"/><text fill="#000000" font-family="sans-serif" font-size="14" lengthAdjust="spacing" textLength="29" x="370" y="1000.042">HEX</text><path d="M310,798.1563 L320,798.1563 C335,798.1563 335,995.1953 350,995.1953 L360,995.1953 " fill="none" style="stroke:#181818;stroke-width:1.0;"/><rect fill="#F1F1F1" height="36.2969" rx="12.5" ry="12.5" style="stroke:#181818;stroke-width:1.5;" width="73" x="360" y="1033.3438"/><text fill="#000000" font-family="sans-serif" font-size="14" lengthAdjust="spacing" textLength="53" x="370" y="1056.3389">STRING</text><path d="M310,798.1563 L320,798.1563 C335,798.1563 335,1051.4922 350,1051.4922 L360,1051.4922 " fill="none" style="stroke:#181818;stroke-width:1.0;"/><path d="M184,741.8594 L194,741.8594 C209,741.8594 209,798.1563 224,798.1563 L234,798.1563 " fill="none" style="stroke:#181818;stroke-width:1.0;"/><path d="M86,544.8203 L96,544.8203 C111,544.8203 111,741.8594 126,741.8594 L136,741.8594 " fill="none" style="stroke:#181818;stroke-width:1.0;"/><!--MD5=[98c209107b6ef6e6ed4370314810f518]
@startmindmap codec

* 数据解码
** 定位
*** 从哪里开始
**** 固定位置
***** 【某位置】例如：从下标 1 开始
**** 偏移位置
***** 【某字段】例如：从 type 字段后开始
*** 到哪里结束
**** 固定长度
***** 【固定长度】例如：2 个字节
**** 指定长度
***** 【某字段的值】例如：field_value 为 5 表示 5 个字节           asdasasdasssssssssssssssssss
*** 是否是标识
**** 头部标识
**** 身部标识
**** 尾部标识
** 解析
*** 读取顺序
**** 大端序
***** HIGT
**** 小端序
***** LOW
*** 数据类型
**** BYTE
***** 1 字节
**** BYTES
***** N 字节
**** SHORT
***** 2 字节
**** MEDIUM
***** 3 字节
**** INT
***** 4 字节
**** LONG
***** 8 字节
**** FLOAT
***** 4 字节
**** DOUBLE
***** 8 字节
**** HEX
**** STRING

@endmindmap

PlantUML version 1.2022.6beta1(Unknown compile time)
(GPL source distribution)
Java Runtime: Java(TM) SE Runtime Environment
JVM: Java HotSpot(TM) 64-Bit Server VM
Default Encoding: UTF-8
Language: en
Country: US
--></g></svg>