<?xml version="1.0" encoding="us-ascii" standalone="no"?><svg xmlns="http://www.w3.org/2000/svg" xmlns:xlink="http://www.w3.org/1999/xlink" contentStyleType="text/css" height="303px" preserveAspectRatio="none" style="width:1337px;height:303px;background:#FFFFFF;" version="1.1" viewBox="0 0 1337 303" width="1337px" zoomAndPan="magnify"><defs/><g><rect fill="#F1F1F1" height="36.2969" rx="12.5" ry="12.5" style="stroke:#181818;stroke-width:1.5;" width="76" x="10" y="132.5938"/><text fill="#000000" font-family="sans-serif" font-size="14" lengthAdjust="spacing" textLength="56" x="20" y="155.5889">&#21152;&#38145;&#35268;&#21017;</text><rect fill="#F1F1F1" height="36.2969" rx="12.5" ry="12.5" style="stroke:#181818;stroke-width:1.5;" width="613" x="136" y="20"/><text fill="#000000" font-family="sans-serif" font-size="14" lengthAdjust="spacing" textLength="593" x="146" y="42.9951">&#21407;&#21017;1&#65306;&#21152;&#38145;&#30340;&#22522;&#26412;&#21333;&#20301;&#26159; next-key lock&#12290;&#24076;&#26395;&#20320;&#36824;&#35760;&#24471;&#65292;next-key lock &#26159;&#21069;&#24320;&#21518;&#38381;&#21306;&#38388;&#12290;</text><path d="M86,150.7422 L96,150.7422 C111,150.7422 111,38.1484 126,38.1484 L136,38.1484 " fill="none" style="stroke:#181818;stroke-width:1.0;"/><rect fill="#F1F1F1" height="36.2969" rx="12.5" ry="12.5" style="stroke:#181818;stroke-width:1.5;" width="294" x="136" y="76.2969"/><text fill="#000000" font-family="sans-serif" font-size="14" lengthAdjust="spacing" textLength="274" x="146" y="99.292">&#21407;&#21017;2&#65306;&#26597;&#25214;&#36807;&#31243;&#20013;&#35775;&#38382;&#21040;&#30340;&#23545;&#35937;&#25165;&#20250;&#21152;&#38145;&#12290;</text><rect fill="#F1F1F1" height="36.2969" rx="12.5" ry="12.5" style="stroke:#181818;stroke-width:1.5;" width="496" x="480" y="76.2969"/><text fill="#000000" font-family="sans-serif" font-size="14" lengthAdjust="spacing" textLength="476" x="490" y="99.292">&#27880;&#24847;&#35206;&#30422;&#32034;&#24341;&#30340;&#24773;&#20917;&#65292;&#22914;&#26524;&#35206;&#30422;&#32034;&#24341;&#21487;&#20197;&#28385;&#36275;&#21152;&#38145;&#30340;&#26465;&#20214;&#23601;&#19981;&#20250;&#22238;&#20027;&#38190;&#21152;&#38145;&#12290;</text><path d="M430,94.4453 L440,94.4453 C455,94.4453 455,94.4453 470,94.4453 L480,94.4453 " fill="none" style="stroke:#181818;stroke-width:1.0;"/><path d="M86,150.7422 L96,150.7422 C111,150.7422 111,94.4453 126,94.4453 L136,94.4453 " fill="none" style="stroke:#181818;stroke-width:1.0;"/><rect fill="#F1F1F1" height="36.2969" rx="12.5" ry="12.5" style="stroke:#181818;stroke-width:1.5;" width="538" x="136" y="132.5938"/><text fill="#000000" font-family="sans-serif" font-size="14" lengthAdjust="spacing" textLength="518" x="146" y="155.5889">&#20248;&#21270;1&#65306;&#32034;&#24341;&#19978;&#30340;&#31561;&#20540;&#26597;&#35810;&#65292;&#32473;&#21807;&#19968;&#32034;&#24341;&#21152;&#38145;&#30340;&#26102;&#20505;&#65292;next-key lock &#36864;&#21270;&#20026;&#34892;&#38145;&#12290;</text><rect fill="#F1F1F1" height="36.2969" rx="12.5" ry="12.5" style="stroke:#181818;stroke-width:1.5;" width="328" x="724" y="132.5938"/><text fill="#000000" font-family="sans-serif" font-size="14" lengthAdjust="spacing" textLength="308" x="734" y="155.5889">&#20027;&#38190;&#21644;&#21807;&#19968;&#32034;&#24341;&#23384;&#22312;&#31561;&#20540;&#26597;&#35810;&#65292;&#21487;&#20197;&#36864;&#21270;&#20026;&#34892;&#38145;&#12290;</text><path d="M674,150.7422 L684,150.7422 C699,150.7422 699,150.7422 714,150.7422 L724,150.7422 " fill="none" style="stroke:#181818;stroke-width:1.0;"/><path d="M86,150.7422 L96,150.7422 C111,150.7422 111,150.7422 126,150.7422 L136,150.7422 " fill="none" style="stroke:#181818;stroke-width:1.0;"/><rect fill="#F1F1F1" height="36.2969" rx="12.5" ry="12.5" style="stroke:#181818;stroke-width:1.5;" width="705" x="136" y="188.8906"/><text fill="#000000" font-family="sans-serif" font-size="14" lengthAdjust="spacing" textLength="685" x="146" y="211.8857">&#20248;&#21270;2&#65306;&#32034;&#24341;&#19978;&#30340;&#31561;&#20540;&#26597;&#35810;&#65292;&#21521;&#21491;&#36941;&#21382;&#26102;&#19988;&#26368;&#21518;&#19968;&#20010;&#20540;&#19981;&#28385;&#36275;&#31561;&#20540;&#26465;&#20214;&#30340;&#26102;&#20505;&#65292;next-key lock &#36864;&#21270;&#20026;&#38388;&#38553;&#38145;&#12290;</text><rect fill="#F1F1F1" height="36.2969" rx="12.5" ry="12.5" style="stroke:#181818;stroke-width:1.5;" width="201" x="891" y="188.8906"/><text fill="#000000" font-family="sans-serif" font-size="14" lengthAdjust="spacing" textLength="181" x="901" y="211.8857">&#38656;&#35201;&#27880;&#24847; order by &#30340;&#26041;&#21521;&#12290;</text><path d="M841,207.0391 L851,207.0391 C866,207.0391 866,207.0391 881,207.0391 L891,207.0391 " fill="none" style="stroke:#181818;stroke-width:1.0;"/><path d="M86,150.7422 L96,150.7422 C111,150.7422 111,207.0391 126,207.0391 L136,207.0391 " fill="none" style="stroke:#181818;stroke-width:1.0;"/><rect fill="#F1F1F1" height="36.2969" rx="12.5" ry="12.5" style="stroke:#181818;stroke-width:1.5;" width="467" x="136" y="245.1875"/><text fill="#000000" font-family="sans-serif" font-size="14" lengthAdjust="spacing" textLength="447" x="146" y="268.1826">&#19968;&#20010;bug&#65306;&#21807;&#19968;&#32034;&#24341;&#19978;&#30340;&#33539;&#22260;&#26597;&#35810;&#20250;&#35775;&#38382;&#21040;&#19981;&#28385;&#36275;&#26465;&#20214;&#30340;&#31532;&#19968;&#20010;&#20540;&#20026;&#27490;&#12290;</text><rect fill="#F1F1F1" height="36.2969" rx="12.5" ry="12.5" style="stroke:#181818;stroke-width:1.5;" width="672" x="653" y="245.1875"/><text fill="#000000" font-family="sans-serif" font-size="14" lengthAdjust="spacing" textLength="652" x="663" y="268.1826">&#21807;&#19968;&#32034;&#24341;&#29702;&#35770;&#19978;&#26597;&#35810;&#21040;&#21305;&#37197;&#30340;&#20540;&#23601;&#21487;&#20197;&#19981;&#32487;&#32493;&#21521;&#21518;&#26597;&#25214;&#65292;&#20294;&#26159;&#23427;&#24182;&#27809;&#26377;&#36825;&#20040;&#20570;&#65292;&#20381;&#28982;&#27839;&#29992;&#20102;&#20248;&#21270;2&#30340;&#36923;&#36753;&#12290;</text><path d="M603,263.3359 L613,263.3359 C628,263.3359 628,263.3359 643,263.3359 L653,263.3359 " fill="none" style="stroke:#181818;stroke-width:1.0;"/><path d="M86,150.7422 L96,150.7422 C111,150.7422 111,263.3359 126,263.3359 L136,263.3359 " fill="none" style="stroke:#181818;stroke-width:1.0;"/><!--SRC=[ZLFTJzfG57_lNt4VrKGpSLiMdymsjyL8OkR7Uu6ED49hId7phIWoSGNPWlBf1oOgMGHqEb8emX-pUs_R9_-5dL9Wk2tBtkwzvvpVnpddpeHaLfA3lE0Bick8x9vOwOXv4IKxEOOPUtWVWtlo64wJzwsy4p7oKNBSfCLBajZ7TmcQhI61-o2Fht8RA21wLtyecqHJQR60xqxCJjQiNf5svhwbFaX2K4RY2T9II2ffPIf4RLgPMoZznUW2HdfyHkDji_FHA7_2MiMiTgnCbUnSsHfg3VEwHEC9t1VcL8yXUbEcqJtpF6OK3epRKzBQXtIwjKrYtq46ET-aHyNXADchOVsCwYMpVZEmI0zBMA-JgskiTHaAHrZJhNHrc0hXLfQe1tPh72IixKAfKOaJfGNIpTef41fwZgHhM5DwR0E6J9qekJyQOoaAO6AjQPRK8LCzzY_g0wnAbXJBl_4vTluAqnFi-hTWalfCzcwiI88aOo0IQsbQjCS4j5Zx2fdG4gTRlS9kg_x34KpOokU6J5b5nJoFEFD2ekJZ9EJPG3RIGGDKz4LtUJrXlxs2G-uTyQQwHGgtZdWOr6151Y87yepBoo4BJLevxUiOHZLICRFQ16m74f28sh2s4_RAAIrO2AU_06_e5uPUiRkLIZgB2jRnNSnUxUeMQTJfjn8jnirE3ZTsI2HlHzk7HXJUEqQwZ9kntZW0sb9qizqrpCnmy2-Tlyam2m5Ma9VTysYTaqAyAA392TSZrzJ44mydirCZoyAg8BuNa5SChl413ibya1jbHbulpAEG69Qy7FBn8LdYFM4PYaUPENQTHM_3WfqtZUpRo99x52tEzX_HhB3EIw8Gv0IPcLjnEqdeZIWlheboD_dfu_7dl8mMEGaqeHKtyv9xnuO3CfHwHHyl-AVHyjAhyMVCF2lumwmVY3Y1UI42WRG1iSMV]--></g></svg>