<?xml version="1.0" encoding="UTF-8" standalone="no"?><svg xmlns="http://www.w3.org/2000/svg" xmlns:xlink="http://www.w3.org/1999/xlink" contentStyleType="text/css" height="219px" preserveAspectRatio="none" style="width:352px;height:219px;background:#FFFFFF;" version="1.1" viewBox="0 0 352 219" width="352px" zoomAndPan="magnify"><defs/><g><rect fill="#F1F1F1" height="36.2969" rx="12.5" ry="12.5" style="stroke:#181818;stroke-width:1.5;" width="74" x="10" y="90.3711"/><text fill="#000000" font-family="sans-serif" font-size="14" lengthAdjust="spacing" textLength="54" x="20" y="113.3662">mission</text><rect fill="#F1F1F1" height="36.2969" rx="12.5" ry="12.5" style="stroke:#181818;stroke-width:1.5;" width="49" x="134" y="48.1484"/><text fill="#000000" font-family="sans-serif" font-size="14" lengthAdjust="spacing" textLength="29" x="144" y="71.1436">vars</text><rect fill="#F1F1F1" height="36.2969" rx="12.5" ry="12.5" style="stroke:#181818;stroke-width:1.5;" width="107" x="233" y="20"/><text fill="#000000" font-family="sans-serif" font-size="14" lengthAdjust="spacing" textLength="87" x="243" y="42.9951">mission vars</text><path d="M183,66.2969 L193,66.2969 C208,66.2969 208,38.1484 223,38.1484 L233,38.1484 " fill="none" style="stroke:#181818;stroke-width:1.0;"/><rect fill="#F1F1F1" height="36.2969" rx="12.5" ry="12.5" style="stroke:#181818;stroke-width:1.5;" width="105" x="233" y="76.2969"/><text fill="#000000" font-family="sans-serif" font-size="14" lengthAdjust="spacing" textLength="85" x="243" y="99.292">system vars</text><path d="M183,66.2969 L193,66.2969 C208,66.2969 208,94.4453 223,94.4453 L233,94.4453 " fill="none" style="stroke:#181818;stroke-width:1.0;"/><path d="M84,108.5195 L94,108.5195 C109,108.5195 109,66.2969 124,66.2969 L134,66.2969 " fill="none" style="stroke:#181818;stroke-width:1.0;"/><rect fill="#F1F1F1" height="36.2969" rx="12.5" ry="12.5" style="stroke:#181818;stroke-width:1.5;" width="58" x="134" y="104.4453"/><text fill="#000000" font-family="sans-serif" font-size="14" lengthAdjust="spacing" textLength="38" x="144" y="127.4404">tasks</text><path d="M84,108.5195 L94,108.5195 C109,108.5195 109,122.5938 124,122.5938 L134,122.5938 " fill="none" style="stroke:#181818;stroke-width:1.0;"/><rect fill="#F1F1F1" height="36.2969" rx="12.5" ry="12.5" style="stroke:#181818;stroke-width:1.5;" width="68" x="134" y="160.7422"/><text fill="#000000" font-family="sans-serif" font-size="14" lengthAdjust="spacing" textLength="48" x="144" y="183.7373">results</text><path d="M84,108.5195 L94,108.5195 C109,108.5195 109,178.8906 124,178.8906 L134,178.8906 " fill="none" style="stroke:#181818;stroke-width:1.0;"/><!--MD5=[92afc7f8fc22dc2240fd43fc30efb3d8]
@startmindmap auto-mission

* mission
** vars
*** mission vars
*** system vars
** tasks
** results

@endmindmap

PlantUML version 1.2022.7beta2(Unknown compile time)
(GPL source distribution)
Java Runtime: Java(TM) SE Runtime Environment
JVM: Java HotSpot(TM) 64-Bit Server VM
Default Encoding: UTF-8
Language: en
Country: US
--></g></svg>